<svg width="500" height="465" viewBox="0 0 500 465" fill="none" xmlns="http://www.w3.org/2000/svg">
<path fill-rule="evenodd" clip-rule="evenodd" d="M250.066 0.904785C338.172 0.904785 414.837 50.0995 453.992 122.542C448.963 124.012 444.198 126.208 440.004 129.127C403.307 61.9098 332.045 16.3591 250.088 16.3591C168.021 16.3591 96.7586 61.9098 60.0624 129.127C55.8459 126.208 51.1024 124.012 46.0734 122.542C85.1854 50.0995 161.872 0.904785 250.066 0.904785ZM480.96 213.994C481.421 220.119 481.685 226.244 481.685 232.478C481.685 298.598 454.058 358.22 409.588 400.39C407.304 395.626 404.274 391.346 400.628 387.592C441.058 348.363 466.225 293.395 466.225 232.5C466.225 227.012 466.049 221.524 465.675 216.036C466.137 216.036 466.598 216.124 467.037 216.124C471.912 216.08 476.568 215.355 480.96 213.994ZM329.014 450.287C304.309 459.244 277.78 464.095 250.066 464.095C220.507 464.095 192.244 458.519 166.264 448.465C169.185 444.25 171.469 439.596 173.028 434.569C196.899 443.614 222.879 448.663 250.066 448.663C275.123 448.663 299.192 444.36 321.614 436.501C323.327 441.506 325.808 446.182 329.014 450.287ZM86.3932 396.526C44.2946 354.554 18.3152 296.556 18.3152 232.456C18.3152 226.244 18.5787 220.119 19.0399 213.972C23.432 215.333 28.0877 216.08 32.941 216.08C33.49 216.08 33.9512 215.992 34.4123 215.992C33.9512 221.48 33.7755 226.968 33.7755 232.456C33.7755 291.902 57.6467 345.663 96.4512 384.716C92.5202 388.009 89.1383 392.048 86.3932 396.526ZM467.059 135.428C485.264 135.428 500 150.157 500 168.356C500 186.554 485.264 201.372 467.059 201.372C460.471 201.372 454.344 199.462 449.227 196.169C393.425 225.168 330.486 242.356 263.682 244.464L361.033 388.689C362.856 388.426 364.788 388.228 366.699 388.228C384.904 388.228 399.728 402.958 399.728 421.157C399.728 439.355 384.904 454.085 366.699 454.085C348.494 454.085 333.758 439.355 333.758 421.157C333.758 410.554 338.787 401.026 346.649 395.012L250.044 251.796L150.782 398.853C156.272 404.714 159.654 412.573 159.654 421.157C159.654 439.091 145.116 453.624 127.174 453.624C109.342 453.624 94.7822 439.091 94.7822 421.157C94.7822 403.222 109.32 388.689 127.174 388.689C130.929 388.689 134.487 389.326 137.781 390.511L236.319 244.464C169.536 242.356 106.597 225.168 50.773 196.169C45.6562 199.462 39.5292 201.372 32.941 201.372C14.7356 201.372 0 186.554 0 168.356C0 150.157 14.7356 135.428 32.941 135.428C51.1463 135.428 65.9698 150.157 65.9698 168.356C65.9698 174.217 64.4106 179.705 61.7533 184.447C118.302 213.072 182.251 229.163 250.022 229.163C317.727 229.163 381.676 213.072 438.203 184.447C435.546 179.683 433.986 174.195 433.986 168.356C434.03 150.157 448.854 135.428 467.059 135.428ZM250.066 62.3708C284.654 62.3708 312.742 90.4476 312.742 125.022C312.742 159.685 284.654 187.761 250.066 187.761C215.39 187.761 187.302 159.685 187.302 125.022C187.302 90.4256 215.39 62.3708 250.066 62.3708Z" fill="#171B2B"/>
<path fill-rule="evenodd" clip-rule="evenodd" d="M467.063 187.737C477.67 187.737 486.367 179.044 486.367 168.354C486.367 157.751 477.67 149.058 467.063 149.058C456.368 149.058 447.672 157.751 447.672 168.354C447.672 179.044 456.368 187.737 467.063 187.737Z" fill="#00ACD9"/>
<path fill-rule="evenodd" clip-rule="evenodd" d="M32.9671 187.737C43.6619 187.737 52.3584 179.044 52.3584 168.354C52.3584 157.751 43.6619 149.058 32.9671 149.058C22.3601 149.058 13.6637 157.751 13.6637 168.354C13.6637 179.044 22.3382 187.737 32.9671 187.737Z" fill="#00ACD9"/>
<path fill-rule="evenodd" clip-rule="evenodd" d="M127.193 440.408C137.888 440.408 146.584 431.715 146.584 421.112C146.584 410.509 137.888 401.816 127.193 401.816C116.586 401.816 107.889 410.509 107.889 421.112C107.889 431.737 116.564 440.408 127.193 440.408Z" fill="#00ACD9"/>
<path fill-rule="evenodd" clip-rule="evenodd" d="M366.698 440.408C377.393 440.408 386.089 431.715 386.089 421.112C386.089 410.509 377.393 401.816 366.698 401.816C356.091 401.816 347.395 410.509 347.395 421.112C347.395 431.737 356.091 440.408 366.698 440.408Z" fill="#00ACD9"/>
<path fill-rule="evenodd" clip-rule="evenodd" d="M250.071 174.107C277.06 174.107 299.109 152.067 299.109 125C299.109 98.0211 277.06 75.9812 250.071 75.9812C222.993 75.9812 200.945 98.0211 200.945 125C200.923 152.067 222.971 174.107 250.071 174.107Z" fill="#00ACD9"/>
</svg>
